<svg id="Layer_1" data-name="Layer 1" xmlns="http://www.w3.org/2000/svg" viewBox="0 0 476.53 123.2"><defs><style>.cls-1{fill:#00290f;}</style></defs><path class="cls-1" d="M577.1,557.51H550.21l-5.11,15.34H528.79l27.71-74.44h14.21l27.87,74.44H582.27Zm-22.75-12.42H573l-9.35-27.87ZM663.3,563.44a26.74,26.74,0,0,1-11.71,7.72,49.33,49.33,0,0,1-16.77,2.71,33.55,33.55,0,0,1-17-4.19,28.52,28.52,0,0,1-11.25-12.27,43.43,43.43,0,0,1-4-18.87v-5.06a45.81,45.81,0,0,1,3.74-19.27,27.83,27.83,0,0,1,10.83-12.48,31.29,31.29,0,0,1,16.62-4.34q13.25,0,20.71,6.34t8.84,18.35H648.37q-1-6.39-4.55-9.35t-9.61-3q-7.82,0-11.91,5.88t-4.14,17.48v4.76q0,11.7,4.45,17.69t13,6q8.64,0,12.32-3.68V545H634v-11.3H663.3Zm57.26-22.85H691.11v19.94h34.57v12.32h-49.9V498.41h49.79v12.42H691.11v17.74h29.45Zm34.16-42.18,19.12,54,19-54H813v74.44H797.61V552.5l1.53-35.12-20.09,55.47H768.52l-20-55.42L750,552.5v20.35H734.67V498.41Z" transform="translate(-336.47 -478.42)"/><path class="cls-1" d="M460.65,483.86a16.93,16.93,0,0,0-12.77-5.44H382.11A17.09,17.09,0,0,0,369,484.25l-31.41,42.67a5.63,5.63,0,0,0,.87,7.71l70.68,64.84a9,9,0,0,0,11.67,0l70.68-64.85a5.61,5.61,0,0,0,.87-7.7ZM415,585.44,362,536.78H468Zm-56.73-61.63,23.84-32.42,65.44-.4,24.16,32.82Z" transform="translate(-336.47 -478.42)"/></svg>