<?xml version="1.0" standalone="no"?>
<svg xmlns:xlink="http://www.w3.org/1999/xlink" id="wave" style="transform:rotate(0deg); transition: 0.3s" viewBox="0 0 1440 170" version="1.1" xmlns="http://www.w3.org/2000/svg"><defs><linearGradient id="sw-gradient-0" x1="0" x2="0" y1="1" y2="0"><stop stop-color="rgba(127, 186, 149, 1)" offset="0%"/><stop stop-color="rgba(127, 186, 149, 1)" offset="100%"/></linearGradient></defs><path style="transform:translate(0, 0px); opacity:1" fill="url(#sw-gradient-0)" d="M0,119L40,102C80,85,160,51,240,51C320,51,400,85,480,85C560,85,640,51,720,31.2C800,11,880,6,960,17C1040,28,1120,57,1200,76.5C1280,96,1360,108,1440,99.2C1520,91,1600,62,1680,56.7C1760,51,1840,68,1920,73.7C2000,79,2080,74,2160,59.5C2240,45,2320,23,2400,22.7C2480,23,2560,45,2640,53.8C2720,62,2800,57,2880,70.8C2960,85,3040,119,3120,133.2C3200,147,3280,142,3360,136C3440,130,3520,125,3600,119C3680,113,3760,108,3840,93.5C3920,79,4000,57,4080,39.7C4160,23,4240,11,4320,17C4400,23,4480,45,4560,53.8C4640,62,4720,57,4800,51C4880,45,4960,40,5040,31.2C5120,23,5200,11,5280,28.3C5360,45,5440,91,5520,107.7C5600,125,5680,113,5720,107.7L5760,102L5760,170L5720,170C5680,170,5600,170,5520,170C5440,170,5360,170,5280,170C5200,170,5120,170,5040,170C4960,170,4880,170,4800,170C4720,170,4640,170,4560,170C4480,170,4400,170,4320,170C4240,170,4160,170,4080,170C4000,170,3920,170,3840,170C3760,170,3680,170,3600,170C3520,170,3440,170,3360,170C3280,170,3200,170,3120,170C3040,170,2960,170,2880,170C2800,170,2720,170,2640,170C2560,170,2480,170,2400,170C2320,170,2240,170,2160,170C2080,170,2000,170,1920,170C1840,170,1760,170,1680,170C1600,170,1520,170,1440,170C1360,170,1280,170,1200,170C1120,170,1040,170,960,170C880,170,800,170,720,170C640,170,560,170,480,170C400,170,320,170,240,170C160,170,80,170,40,170L0,170Z"/></svg>