<?xml version="1.0" standalone="no"?>
<svg xmlns:xlink="http://www.w3.org/1999/xlink" id="wave" style="transform:rotate(0deg); transition: 0.3s" viewBox="0 0 1440 170" version="1.1" xmlns="http://www.w3.org/2000/svg"><defs><linearGradient id="sw-gradient-0" x1="0" x2="0" y1="1" y2="0"><stop stop-color="rgba(127, 186, 149, 1)" offset="0%"/><stop stop-color="rgba(127, 186, 149, 1)" offset="100%"/></linearGradient></defs><path style="transform:translate(0, 0px); opacity:1" fill="url(#sw-gradient-0)" d="M0,85L60,93.5C120,102,240,119,360,107.7C480,96,600,57,720,51C840,45,960,74,1080,76.5C1200,79,1320,57,1440,53.8C1560,51,1680,68,1800,82.2C1920,96,2040,108,2160,107.7C2280,108,2400,96,2520,102C2640,108,2760,130,2880,121.8C3000,113,3120,74,3240,56.7C3360,40,3480,45,3600,62.3C3720,79,3840,108,3960,104.8C4080,102,4200,68,4320,70.8C4440,74,4560,113,4680,119C4800,125,4920,96,5040,73.7C5160,51,5280,34,5400,28.3C5520,23,5640,28,5760,48.2C5880,68,6000,102,6120,113.3C6240,125,6360,113,6480,93.5C6600,74,6720,45,6840,34C6960,23,7080,28,7200,34C7320,40,7440,45,7560,39.7C7680,34,7800,17,7920,14.2C8040,11,8160,23,8280,42.5C8400,62,8520,91,8580,104.8L8640,119L8640,170L8580,170C8520,170,8400,170,8280,170C8160,170,8040,170,7920,170C7800,170,7680,170,7560,170C7440,170,7320,170,7200,170C7080,170,6960,170,6840,170C6720,170,6600,170,6480,170C6360,170,6240,170,6120,170C6000,170,5880,170,5760,170C5640,170,5520,170,5400,170C5280,170,5160,170,5040,170C4920,170,4800,170,4680,170C4560,170,4440,170,4320,170C4200,170,4080,170,3960,170C3840,170,3720,170,3600,170C3480,170,3360,170,3240,170C3120,170,3000,170,2880,170C2760,170,2640,170,2520,170C2400,170,2280,170,2160,170C2040,170,1920,170,1800,170C1680,170,1560,170,1440,170C1320,170,1200,170,1080,170C960,170,840,170,720,170C600,170,480,170,360,170C240,170,120,170,60,170L0,170Z"/></svg>